# xmcd
#
# Track frame offsets:
#	150
#	16050
#	33000
#	46850
#	63541
#	78816
#	95718
#	108883
#	124062
#	137745
#	150749
#	164490
#	180390
#	197228
#	218978
#	236153
#	247928
#
# Disc length: 3439 seconds
#
# Revision: 0
# Processed by: cddbd v1.5.2PL0 Copyright (c) Steve Scherf et al.
# Submitted via: EZCDAudioConverter 2.3.0.1
#
DISCID=db0d6d11
DTITLE=3 Dayz Whizkey - Steam
DYEAR=2014
DGENRE=Blues Rock
TTITLE0=3 Dayz Whizkey - Amen Rock And Roll
TTITLE1=3 Dayz Whizkey - Bonfire In The Night
TTITLE2=3 Dayz Whizkey - The Long Road
TTITLE3=3 Dayz Whizkey - The High Price Of Lovin' You
TTITLE4=3 Dayz Whizkey - Water
TTITLE5=3 Dayz Whizkey - White Line
TTITLE6=3 Dayz Whizkey - One Way Street
TTITLE7=3 Dayz Whizkey - Sunrise To Sunset
TTITLE8=3 Dayz Whizkey - Modern Haircut
TTITLE9=3 Dayz Whizkey - Dominion Of Rats
TTITLE10=3 Dayz Whizkey - Change
TTITLE11=3 Dayz Whizkey - Legs
TTITLE12=3 Dayz Whizkey - Back To The Blues
TTITLE13=3 Dayz Whizkey - More Of The Same
TTITLE14=3 Dayz Whizkey - The Wave
TTITLE15=3 Dayz Whizkey - Another Day Goes By
TTITLE16=3 Dayz Whizkey - Bloody River
EXTD=
EXTT0=
EXTT1=
EXTT2=
EXTT3=
EXTT4=
EXTT5=
EXTT6=
EXTT7=
EXTT8=
EXTT9=
EXTT10=
EXTT11=
EXTT12=
EXTT13=
EXTT14=
EXTT15=
EXTT16=
PLAYORDER=
